<svg xmlns="http://www.w3.org/2000/svg" width="500" height="500" viewBox="0 0 500 500">
<g>
<path d="M 259.27 378.99 C240.58,376.39 225.60,369.08 211.92,355.86 C206.48,350.60 198.00,339.40 198.00,337.46 C198.00,337.19 196.23,333.26 194.07,328.73 C193.60,327.75 193.13,326.67 192.67,325.56 C192.76,325.07 192.51,323.84 192.03,322.57 C191.46,321.09 190.99,318.66 190.98,317.18 C190.98,315.71 190.30,312.48 189.47,310.00 L 188.54 307.20 C188.16,298.84 187.85,284.73 187.76,269.50 L 187.70 261.01 C188.79,267.77 189.15,262.88 188.48,249.51 C187.85,236.76 187.96,234.70 189.46,232.42 C190.12,231.41 190.51,230.80 190.62,230.45 L 220.50 229.94 C241.11,229.58 254.75,228.94 256.83,228.23 C266.37,224.97 276.63,215.59 281.44,205.72 C284.01,200.47 284.25,199.03 284.12,189.93 C284.01,181.58 283.55,178.88 281.38,173.70 C277.67,164.89 274.39,160.76 267.29,155.93 C266.51,155.41 265.79,154.92 265.10,154.46 C265.55,154.69 265.84,154.83 265.90,154.85 C266.13,154.93 265.53,154.14 264.58,153.09 C263.63,152.04 260.53,150.13 257.68,148.84 C252.73,146.60 251.32,146.49 226.00,146.20 C211.43,146.04 194.77,146.26 189.00,146.70 C180.63,147.34 186.12,147.60 216.00,148.00 L 219.76 148.05 C217.63,148.05 215.38,148.05 213.00,148.04 C183.75,148.03 174.34,148.18 167.62,150.14 C168.37,149.89 169.13,149.66 169.89,149.45 C174.04,148.31 174.19,148.17 171.38,148.09 C164.89,147.90 155.14,153.79 144.91,164.08 C137.67,171.36 134.30,178.45 133.54,188.00 C132.58,200.13 132.28,214.27 132.91,217.50 C133.23,219.15 133.76,213.07 134.07,204.00 C134.10,203.18 134.13,202.36 134.17,201.54 C134.14,203.69 134.16,206.00 134.21,208.50 L 134.50 222.50 L 144.50 222.75 C147.90,222.83 150.54,222.93 152.56,223.08 C145.77,222.63 134.26,222.62 134.65,223.25 C134.91,223.66 138.95,224.00 143.62,224.00 C152.05,224.00 156.00,225.02 156.00,227.19 C156.00,227.81 154.27,230.61 152.15,233.41 C146.89,240.38 145.00,243.28 145.00,244.38 C145.00,244.69 146.10,243.56 147.79,241.57 C141.17,250.29 133.02,260.66 127.39,267.35 C126.42,268.50 124.66,270.80 122.77,273.37 C123.13,272.59 122.34,273.07 120.66,274.17 C118.83,275.37 116.36,277.84 115.16,279.67 C113.96,281.50 112.58,283.00 112.08,283.00 C111.29,283.00 101.18,272.14 96.73,266.50 C95.86,265.40 92.86,261.61 90.07,258.09 C87.28,254.56 85.00,251.31 85.00,250.87 C85.00,250.43 83.99,249.53 82.75,248.87 C81.36,248.12 80.98,248.16 82.88,250.81 C79.98,247.05 77.73,244.08 76.99,243.00 C75.66,241.07 72.40,236.86 69.74,233.64 C68.86,232.57 68.09,231.63 67.46,230.80 C67.71,230.58 67.76,229.50 67.70,227.50 C67.67,226.39 67.53,225.53 67.33,224.93 C69.30,224.40 72.75,224.21 78.01,224.00 L 90.50 223.50 L 91.08 204.50 C91.18,201.47 91.29,198.71 91.43,196.16 L 92.50 192.50 C93.31,189.75 93.77,186.95 93.53,186.28 C93.29,185.61 93.70,182.91 94.44,180.28 C96.05,174.55 97.06,169.20 96.56,169.16 C101.75,157.95 107.08,148.78 112.32,141.97 C112.58,141.95 113.50,141.29 115.10,139.89 C116.42,138.72 118.97,136.64 120.78,135.25 C123.99,132.77 124.13,132.75 127.78,134.39 C134.55,137.42 146.00,133.27 146.00,127.78 C146.00,126.74 146.69,124.56 147.54,122.93 C148.38,121.29 149.01,119.40 148.92,118.73 C148.44,115.01 149.34,114.15 156.75,111.23 C163.68,108.50 166.29,108.07 181.36,107.15 C190.63,106.58 198.49,105.84 198.84,105.49 C198.85,105.48 198.86,105.47 198.86,105.45 C199.22,105.45 199.58,105.44 199.95,105.43 C202.02,105.39 204.02,105.36 205.97,105.33 C204.79,105.41 204.19,105.52 204.33,105.66 C204.69,106.02 213.65,106.59 224.24,106.92 C234.83,107.25 244.85,107.45 246.50,107.37 C255.00,106.96 254.48,106.59 244.50,105.96 C239.25,105.62 232.47,105.38 225.98,105.25 C240.67,105.40 250.73,106.11 258.54,107.54 C260.11,108.83 271.70,114.00 273.26,114.00 C273.94,114.01 275.97,114.91 277.77,116.00 C279.57,117.10 281.50,118.00 282.05,118.00 C284.80,118.00 299.06,129.35 301.06,133.13 C301.75,134.44 304.63,138.20 307.47,141.50 C313.32,148.30 319.22,159.85 320.99,168.00 C321.65,171.02 322.63,175.23 323.16,177.35 C324.03,180.81 324.55,181.56 324.65,180.43 C325.15,187.37 325.01,195.58 324.31,202.74 C324.44,200.92 324.54,198.88 324.62,196.50 C324.88,188.57 324.70,185.18 324.08,186.50 C323.56,187.60 323.11,191.77 323.07,195.77 C322.99,204.38 319.55,221.26 317.02,225.50 C316.03,227.15 314.94,229.62 314.58,231.00 C314.28,232.19 314.34,232.48 314.66,232.13 C308.97,241.73 301.26,249.53 291.00,256.23 C275.78,266.17 267.08,268.74 245.50,269.66 C236.41,270.05 230.21,270.73 229.77,271.40 C228.82,272.82 228.86,290.04 229.71,299.95 C228.95,295.85 228.06,295.38 228.03,300.33 C228.00,305.85 232.42,319.89 234.78,321.74 C235.64,322.42 236.47,322.86 236.62,322.72 C236.76,322.57 235.53,319.73 233.89,316.41 C232.32,313.25 231.06,309.30 230.52,305.97 C233.15,319.06 241.81,330.18 254.00,335.91 C259.50,338.50 259.50,338.50 290.96,338.80 C315.54,339.04 325.41,338.82 333.22,336.71 C330.92,337.54 330.61,337.92 332.13,337.95 C336.91,338.04 355.45,328.36 358.69,324.07 C362.24,319.36 360.17,319.49 355.13,324.29 C350.12,329.07 345.66,332.04 339.58,334.47 C340.64,334.02 341.73,333.52 342.88,332.98 C351.04,329.12 361.20,319.42 364.40,312.44 C364.45,312.33 364.50,312.23 364.54,312.12 C364.39,312.72 364.55,313.00 365.02,313.00 C366.49,313.00 369.02,306.72 368.93,303.28 C368.87,300.82 368.72,300.97 367.61,304.50 C366.94,306.61 365.90,309.28 365.22,310.59 C368.86,302.19 369.89,296.02 370.40,281.37 C370.76,271.28 371.12,266.69 369.01,264.63 C367.07,262.74 363.06,262.98 355.07,263.07 C352.49,263.09 350.06,263.08 348.02,263.04 C348.41,262.69 348.25,262.11 347.47,261.33 C345.40,259.25 345.54,258.77 349.81,253.34 C353.03,249.25 356.46,243.19 354.45,245.24 C354.80,244.84 355.16,244.42 355.52,244.00 C361.94,236.57 368.69,228.19 370.51,225.36 C373.17,221.25 377.97,214.99 382.32,209.71 C381.40,210.92 380.47,212.19 379.56,213.50 C377.69,216.17 379.06,215.09 383.68,210.25 C387.49,206.26 391.31,203.00 392.17,203.00 C393.03,203.00 395.34,205.14 397.31,207.75 C402.81,215.05 407.97,221.56 414.00,228.79 C425.87,243.04 435.07,256.42 434.78,259.00 C434.52,261.34 434.14,261.50 428.84,261.50 C425.73,261.50 422.82,261.86 422.38,262.29 C422.12,262.55 423.33,262.74 425.40,262.81 C419.49,262.98 414.30,263.43 412.79,263.90 L 414.00 263.29 C415.38,262.60 415.83,262.03 415.00,262.03 C410.16,262.03 409.42,265.22 409.16,287.38 C409.03,297.77 408.55,306.99 408.08,307.88 C407.61,308.77 406.90,311.98 406.50,315.00 C405.60,321.81 406.39,321.26 408.57,313.57 C407.15,319.50 404.74,324.37 400.47,332.00 C398.48,335.58 396.06,339.40 395.12,340.50 C394.17,341.60 392.29,344.17 390.95,346.21 C390.19,347.37 389.47,348.33 388.77,349.11 C388.68,348.92 387.86,349.06 386.12,349.38 C384.27,349.72 381.79,350.01 380.62,350.02 C378.96,350.03 378.78,350.19 379.86,350.91 C367.39,346.61 357.67,352.82 356.20,366.11 C356.12,366.88 356.04,367.57 355.95,368.20 C355.96,368.01 355.96,367.82 355.96,367.63 L 355.91 363.50 L 354.52 367.40 C353.76,369.54 352.54,371.85 351.82,372.52 C351.09,373.20 346.34,374.76 341.25,375.99 C336.16,377.22 332.00,378.44 332.00,378.70 C332.00,378.77 332.05,378.82 332.15,378.86 C326.45,379.28 317.52,379.41 300.00,379.56 C281.02,379.73 262.70,379.47 259.27,378.99 ZM 264.00 225.01 C262.08,226.22 261.32,226.94 262.33,226.61 C263.34,226.27 264.82,226.00 265.62,226.00 C267.18,226.00 274.37,218.83 276.16,215.50 C276.75,214.40 275.05,215.59 272.37,218.16 C269.69,220.72 265.92,223.80 264.00,225.01 ZM 132.00 259.95 C132.00,260.53 132.15,261.00 132.34,261.00 C132.81,261.00 142.00,249.11 142.00,248.50 C142.00,246.90 139.82,248.44 138.52,250.96 C137.68,252.59 135.87,255.04 134.50,256.41 C133.12,257.79 132.00,259.38 132.00,259.95 ZM 370.45 359.74 C372.78,358.35 375.49,358.49 377.81,360.81 C378.81,361.81 380.12,362.46 380.72,362.26 C381.32,362.06 382.11,362.37 382.47,362.95 C382.84,363.55 382.27,364.00 381.14,364.00 C380.17,364.00 379.28,364.88 378.38,366.85 C379.80,362.96 379.69,362.69 377.93,360.93 C375.55,358.55 372.80,358.37 370.45,359.74 ZM 243.40 148.37 L 253.50 148.50 L 256.68 150.14 C253.51,149.16 249.59,148.64 243.40,148.37 ZM 135.14 188.01 C135.39,185.67 135.66,183.89 135.91,183.00 C136.95,179.31 138.52,175.74 140.51,172.37 C140.20,172.91 139.91,173.45 139.65,173.98 C137.43,178.41 135.99,182.71 135.14,188.01 ZM 312.23 143.66 C306.15,134.24 298.02,126.14 287.83,119.37 C297.80,125.74 306.03,133.94 312.23,143.66 ZM 95.18 172.46 C94.23,175.75 93.07,180.95 92.32,185.43 C92.97,180.07 93.89,176.00 95.18,172.46 ZM 316.64 228.55 C318.24,225.24 320.32,220.32 321.58,216.50 C322.19,214.65 322.68,212.99 323.07,211.33 C322.75,212.88 322.40,214.29 322.01,215.50 C320.51,220.19 318.73,224.52 316.64,228.55 ZM 336.63 378.38 C341.41,377.43 348.71,375.41 352.51,373.90 C350.56,374.91 347.44,375.77 342.31,377.16 C340.38,377.68 338.69,378.08 336.63,378.38 ZM 411.33 270.49 L 411.50 264.55 L 412.37 264.12 C411.94,264.59 411.60,266.60 411.33,270.49 ZM 188.59 230.48 C188.03,230.93 187.72,231.96 187.53,234.52 L 187.50 230.50 L 188.59 230.48 ZM 162.83 107.79 C157.89,109.05 152.44,111.14 149.52,112.91 C150.96,111.95 152.93,111.05 155.60,110.05 C158.15,109.09 160.36,108.36 162.83,107.79 ZM 105.89 280.25 C107.58,282.48 109.45,284.43 110.74,285.38 C109.44,284.44 107.59,282.51 105.87,280.26 C104.20,278.06 100.35,273.12 96.12,267.72 C99.83,272.40 103.89,277.61 105.89,280.25 ZM 439.43 260.50 C439.36,258.54 425.79,240.56 413.09,224.71 C425.80,240.55 439.36,258.51 439.43,260.50 ZM 158.49 226.79 C158.89,225.73 158.89,224.98 158.52,224.46 C158.87,224.81 158.99,225.24 158.99,225.77 C158.99,225.90 158.82,226.25 158.49,226.79 ZM 142.73 168.96 C145.05,165.67 147.80,162.64 150.84,159.95 C147.81,162.69 144.98,165.83 142.73,168.96 ZM 342.05 261.74 C342.17,262.12 342.51,262.49 342.98,262.77 C342.58,262.72 342.33,262.67 342.27,262.60 C342.07,262.41 341.99,262.13 342.05,261.74 ZM 188.89 312.95 C189.11,314.25 189.39,315.68 189.68,317.06 C189.41,316.09 189.21,315.22 189.08,314.50 C189.02,314.15 188.95,313.63 188.89,312.95 ZM 274.45 112.38 C272.08,111.44 269.51,110.49 267.14,109.66 C267.37,109.74 267.61,109.81 267.84,109.89 C270.10,110.65 272.30,111.48 274.45,112.38 ZM 122.25 131.85 C121.12,132.66 119.15,134.40 117.31,136.16 C118.98,134.46 120.63,133.02 122.25,131.85 ZM 345.92 255.48 C344.91,256.81 344.03,258.01 343.36,259.00 C343.97,258.05 344.82,256.90 345.92,255.48 ZM 112.01 286.00 C112.46,285.99 113.25,285.43 114.24,284.48 C113.26,285.46 112.49,286.00 112.02,286.00 C112.02,286.00 112.02,286.00 112.01,286.00 ZM 65.28 226.57 C65.30,226.90 65.36,227.25 65.45,227.60 C65.31,227.21 65.25,226.87 65.28,226.57 ZM 146.43 116.72 C146.15,117.69 146.00,118.80 146.00,120.03 C146.00,118.76 146.12,117.68 146.43,116.72 ZM 375.56 376.30 C375.36,377.18 375.15,378.11 374.94,379.09 L 374.87 379.42 L 375.04 378.62 C375.18,377.90 375.36,377.12 375.56,376.30 ZM 391.48 200.00 C391.43,200.00 391.38,200.01 391.33,200.03 C391.38,200.01 391.42,200.00 391.46,200.00 C391.46,200.00 391.47,200.00 391.48,200.00 Z" fill="rgba(26,92,69,1)"/>
<path d="M 396.26 419.27 C395.15,418.30 389.63,410.12 384.00,401.09 L 373.75 384.69 L 374.94 379.09 C377.24,368.30 379.01,364.00 381.14,364.00 C382.27,364.00 382.84,363.55 382.47,362.95 C382.11,362.37 381.32,362.06 380.72,362.26 C380.12,362.46 378.81,361.81 377.81,360.81 C372.46,355.46 365.00,361.72 365.00,371.57 C365.00,375.61 364.80,376.08 363.50,375.00 C360.14,372.21 362.56,362.06 367.51,358.17 C371.07,355.37 374.87,355.42 379.15,358.32 C381.59,359.98 383.57,360.53 386.06,360.24 C387.97,360.02 393.36,360.77 398.02,361.90 C405.10,363.63 406.95,364.51 409.20,367.24 C413.98,373.00 430.00,398.36 430.00,400.16 C430.00,402.33 426.37,405.12 412.79,413.35 C399.84,421.20 398.86,421.55 396.26,419.27 ZM 415.50 408.93 C422.51,404.67 426.59,401.57 426.75,400.37 C426.88,399.34 422.38,391.30 416.74,382.50 L 406.48 366.50 L 399.99 364.82 C390.57,362.38 387.34,362.54 383.64,365.64 C380.52,368.27 377.12,377.14 377.04,382.89 C377.02,384.20 379.48,389.04 382.50,393.64 L 393.62 410.54 L 399.23 419.08 L 401.87 417.34 C403.32,416.39 409.45,412.60 415.50,408.93 ZM 112.66 125.52 C111.43,124.29 111.30,123.34 112.06,121.33 C112.89,119.15 112.71,118.48 110.93,117.24 C109.15,115.99 108.91,115.09 109.40,111.63 C109.83,108.63 109.23,105.04 107.21,98.50 C104.62,90.15 104.19,89.43 101.21,88.54 C96.38,87.10 97.04,84.81 102.18,85.19 C105.62,85.45 106.64,86.02 108.01,88.50 L 109.68 91.50 L 126.09 91.62 C141.37,91.73 144.37,91.64 144.91,92.75 C145.09,93.12 145.00,93.62 145.00,94.31 C145.00,97.63 140.97,109.08 139.63,109.55 C139.01,109.76 132.88,110.29 126.00,110.72 C115.90,111.35 113.50,111.79 113.50,113.00 C113.50,114.60 115.07,114.78 130.75,114.92 C137.10,114.98 139.00,115.32 139.00,116.39 C139.00,117.16 138.31,118.05 137.48,118.37 C136.99,118.56 136.69,118.74 136.55,118.98 C136.29,118.41 135.62,118.00 134.83,118.00 C132.50,118.00 132.44,119.71 134.75,120.31 C135.71,120.56 136.54,120.82 136.58,120.88 C136.62,120.93 136.65,120.55 136.66,119.99 C136.79,120.26 136.97,120.59 137.22,120.98 C138.89,123.65 137.16,126.50 133.89,126.50 C132.14,126.50 131.41,125.87 131.17,124.13 C130.98,122.83 131.32,121.28 131.92,120.68 C134.11,118.49 132.83,118.00 125.00,118.00 C120.60,118.00 117.00,118.23 117.00,118.51 C117.00,118.80 117.56,119.92 118.24,121.02 C120.64,124.86 115.86,128.72 112.66,125.52 ZM 132.71 107.36 C137.91,106.73 137.93,106.72 139.56,101.83 C140.45,99.13 140.96,96.33 140.68,95.61 C140.06,93.99 111.52,93.35 110.54,94.93 C109.83,96.09 111.88,104.97 113.27,106.75 C114.33,108.11 123.93,108.41 132.71,107.36 ZM 422.38 262.29 C422.82,261.86 425.73,261.50 428.84,261.50 C434.14,261.50 434.52,261.34 434.78,259.00 C435.07,256.42 425.87,243.04 414.00,228.79 C407.97,221.56 402.81,215.05 397.31,207.75 C395.34,205.14 393.03,203.00 392.17,203.00 C391.31,203.00 387.49,206.26 383.68,210.25 C379.06,215.09 377.69,216.17 379.56,213.50 C384.67,206.22 390.17,200.00 391.51,200.00 C394.22,200.00 439.31,256.92 439.43,260.50 C439.49,262.34 438.76,262.52 430.54,262.79 C425.61,262.95 421.94,262.73 422.38,262.29 ZM 323.16 177.35 C322.63,175.23 321.65,171.02 320.99,168.00 C319.22,159.85 313.32,148.30 307.47,141.50 C304.63,138.20 301.75,134.44 301.06,133.13 C299.06,129.35 284.80,118.00 282.05,118.00 C281.50,118.00 279.57,117.10 277.77,116.00 C275.97,114.91 273.94,114.01 273.26,114.00 C271.55,114.00 257.85,107.81 258.38,107.29 C259.13,106.53 277.04,112.94 281.84,115.68 C304.67,128.72 318.61,147.57 323.58,172.12 C325.24,180.30 324.92,184.31 323.16,177.35 ZM 115.55 137.92 C117.72,135.67 120.74,132.94 122.25,131.85 C125.01,129.86 125.01,129.86 127.64,131.93 C130.89,134.49 137.07,134.66 140.67,132.30 C143.89,130.18 146.00,125.34 146.00,120.03 C146.00,117.42 146.66,115.34 147.89,114.11 C150.21,111.79 159.79,108.13 166.50,107.00 C172.95,105.91 199.66,104.67 198.84,105.49 C198.49,105.84 190.63,106.58 181.36,107.15 C166.29,108.07 163.68,108.50 156.75,111.23 C149.34,114.15 148.44,115.01 148.92,118.73 C149.01,119.40 148.38,121.29 147.54,122.93 C146.69,124.56 146.00,126.74 146.00,127.78 C146.00,133.27 134.55,137.42 127.78,134.39 C124.13,132.75 123.99,132.77 120.78,135.25 C118.97,136.64 116.42,138.72 115.10,139.89 C111.08,143.42 111.35,142.25 115.55,137.92 ZM 259.50 151.60 L 253.50 148.50 L 216.00 148.00 C186.12,147.60 180.63,147.34 189.00,146.70 C194.77,146.26 211.43,146.04 226.00,146.20 C251.32,146.49 252.73,146.60 257.68,148.84 C260.53,150.13 263.63,152.04 264.58,153.09 C265.53,154.14 266.13,154.93 265.90,154.85 C265.68,154.77 262.80,153.31 259.50,151.60 ZM 132.91 217.50 C132.28,214.27 132.58,200.13 133.54,188.00 C134.30,178.45 137.67,171.36 144.91,164.08 C155.14,153.79 164.89,147.90 171.38,148.09 C174.19,148.17 174.04,148.31 169.89,149.45 C154.10,153.80 140.31,167.42 135.91,183.00 C135.21,185.48 134.38,194.93 134.07,204.00 C133.76,213.07 133.23,219.15 132.91,217.50 ZM 105.89 280.25 C103.49,277.09 98.12,270.23 93.96,265.00 C81.09,248.84 80.14,247.47 82.75,248.87 C83.99,249.53 85.00,250.43 85.00,250.87 C85.00,251.31 87.28,254.56 90.07,258.09 C92.86,261.61 95.86,265.40 96.73,266.50 C101.18,272.14 111.29,283.00 112.08,283.00 C112.58,283.00 113.96,281.50 115.16,279.67 C116.36,277.84 118.83,275.37 120.66,274.17 C123.86,272.07 123.80,272.23 118.86,279.00 C115.89,283.07 113.02,286.00 112.00,286.00 C111.03,286.00 108.28,283.41 105.89,280.25 ZM 406.50 315.00 C406.90,311.98 407.61,308.77 408.08,307.88 C408.55,306.99 409.03,297.77 409.16,287.38 C409.42,265.22 410.16,262.03 415.00,262.03 C415.83,262.03 415.38,262.60 414.00,263.29 L 411.50 264.55 L 410.89 286.03 C410.45,301.56 409.82,309.15 408.60,313.46 C406.40,321.25 405.60,321.84 406.50,315.00 ZM 386.65 377.17 C383.35,373.52 385.20,369.00 390.00,369.00 C393.37,369.00 395.00,370.71 395.00,374.22 C395.00,376.34 394.35,377.30 392.43,378.02 C388.97,379.34 388.57,379.28 386.65,377.17 ZM 145.00 244.38 C145.00,243.28 146.89,240.38 152.15,233.41 C154.27,230.61 156.00,227.81 156.00,227.19 C156.00,225.02 152.05,224.00 143.62,224.00 C138.95,224.00 134.91,223.66 134.65,223.25 C134.15,222.45 152.98,222.69 156.75,223.53 C160.37,224.35 159.42,226.93 151.98,236.41 C148.14,241.31 145.00,244.90 145.00,244.38 ZM 224.24 106.92 C213.65,106.59 204.69,106.02 204.33,105.66 C203.50,104.83 229.89,105.02 244.50,105.96 C254.48,106.59 255.00,106.96 246.50,107.37 C244.85,107.45 234.83,107.25 224.24,106.92 ZM 314.58 231.00 C314.94,229.62 316.03,227.15 317.02,225.50 C319.55,221.26 322.99,204.38 323.07,195.77 C323.11,191.77 323.56,187.60 324.08,186.50 C324.70,185.18 324.88,188.57 324.62,196.50 C324.30,206.03 323.68,210.15 321.58,216.50 C319.05,224.17 313.24,236.21 314.58,231.00 ZM 335.00 336.11 C343.60,333.33 348.94,330.20 355.13,324.29 C360.17,319.49 362.24,319.36 358.69,324.07 C355.45,328.36 336.91,338.04 332.13,337.95 C330.28,337.91 331.14,337.36 335.00,336.11 ZM 344.25 263.23 C343.01,263.02 342.00,262.22 342.00,261.44 C342.00,260.32 348.72,251.54 354.21,245.50 C356.71,242.74 353.14,249.10 349.81,253.34 C345.54,258.77 345.40,259.25 347.47,261.33 C349.19,263.05 347.89,263.81 344.25,263.23 ZM 234.78 321.74 C232.42,319.89 228.00,305.85 228.03,300.33 C228.07,293.93 229.55,296.59 230.31,304.43 C230.67,308.03 232.07,312.74 233.89,316.41 C235.53,319.73 236.76,322.57 236.62,322.72 C236.47,322.86 235.64,322.42 234.78,321.74 ZM 332.00 378.70 C332.00,378.44 336.16,377.22 341.25,375.99 C346.34,374.76 351.09,373.20 351.82,372.52 C352.54,371.85 353.76,369.54 354.52,367.40 L 355.91 363.50 L 355.96 367.63 C355.98,369.90 355.44,372.21 354.75,372.77 C352.23,374.82 332.00,380.09 332.00,378.70 ZM 187.51 259.75 C187.17,257.41 187.03,249.88 187.20,243.01 C187.47,231.84 187.69,230.49 189.33,230.17 C191.08,229.84 191.08,229.95 189.46,232.42 C187.96,234.70 187.85,236.76 188.48,249.51 C189.19,263.64 188.75,268.30 187.51,259.75 ZM 91.58 190.88 C92.12,184.43 95.26,170.41 96.43,169.23 C97.19,168.48 96.16,174.17 94.44,180.28 C93.70,182.91 93.29,185.61 93.53,186.28 C93.77,186.95 93.31,189.75 92.50,192.50 L 91.03 197.50 ZM 264.00 225.01 C265.92,223.80 269.69,220.72 272.37,218.16 C275.05,215.59 276.75,214.40 276.16,215.50 C274.37,218.83 267.18,226.00 265.62,226.00 C264.82,226.00 263.34,226.27 262.33,226.61 C261.32,226.94 262.08,226.22 264.00,225.01 ZM 132.00 259.95 C132.00,259.38 133.12,257.79 134.50,256.41 C135.87,255.04 137.68,252.59 138.52,250.96 C139.82,248.44 142.00,246.90 142.00,248.50 C142.00,249.11 132.81,261.00 132.34,261.00 C132.15,261.00 132.00,260.53 132.00,259.95 ZM 190.61 320.86 C189.78,317.91 188.85,313.25 188.54,310.50 L 187.98 305.50 L 189.47 310.00 C190.30,312.48 190.98,315.71 190.98,317.18 C190.99,318.66 191.46,321.09 192.03,322.57 C192.59,324.06 192.85,325.49 192.59,325.75 C192.33,326.00 191.44,323.80 190.61,320.86 ZM 365.14 310.75 C365.80,309.51 366.92,306.70 367.61,304.50 C368.72,300.97 368.87,300.82 368.93,303.28 C369.02,306.72 366.49,313.00 365.02,313.00 C364.27,313.00 364.31,312.29 365.14,310.75 ZM 392.50 373.50 C392.50,370.52 388.60,370.82 388.17,373.83 C387.90,375.77 388.23,376.10 390.17,375.83 C391.72,375.61 392.50,374.83 392.50,373.50 ZM 380.00 351.00 C378.77,350.21 378.89,350.03 380.62,350.02 C381.79,350.01 384.27,349.72 386.12,349.38 C389.35,348.78 389.41,348.83 387.50,350.35 C385.22,352.16 382.20,352.42 380.00,351.00 ZM 65.96 228.92 C65.35,227.78 65.09,226.20 65.39,225.42 C66.38,222.84 67.60,223.94 67.70,227.50 C67.82,231.54 67.50,231.80 65.96,228.92 ZM 133.00 123.50 C133.00,124.32 133.68,125.00 134.50,125.00 C135.32,125.00 136.00,124.32 136.00,123.50 C136.00,122.68 135.32,122.00 134.50,122.00 C133.68,122.00 133.00,122.68 133.00,123.50 ZM 113.00 119.00 C113.00,119.55 113.90,120.00 115.00,120.00 C116.10,120.00 117.00,119.55 117.00,119.00 C117.00,118.45 116.10,118.00 115.00,118.00 C113.90,118.00 113.00,118.45 113.00,119.00 Z" fill="rgba(43,79,66,1)"/>
<path d="M 133.00 123.50 C133.00,122.68 133.68,122.00 134.50,122.00 C135.32,122.00 136.00,122.68 136.00,123.50 C136.00,124.32 135.32,125.00 134.50,125.00 C133.68,125.00 133.00,124.32 133.00,123.50 ZM 134.75 120.31 C132.44,119.71 132.50,118.00 134.83,118.00 C135.84,118.00 136.67,118.68 136.67,119.50 C136.67,120.32 136.63,120.95 136.58,120.88 C136.54,120.82 135.71,120.56 134.75,120.31 ZM 113.00 119.00 C113.00,118.45 113.90,118.00 115.00,118.00 C116.10,118.00 117.00,118.45 117.00,119.00 C117.00,119.55 116.10,120.00 115.00,120.00 C113.90,120.00 113.00,119.55 113.00,119.00 Z" fill="rgba(67,96,85,1)"/>
</g>
</svg>